<svg width="1440" height="798" viewBox="0 0 1440 798" fill="none" xmlns="http://www.w3.org/2000/svg">
<path d="M1233.41 453.601C1298.52 514.335 1388.29 518.871 1440 510.351V798H398V589.195C408.027 589.195 425.299 585.093 442.217 589.195C479.876 598.324 524.358 667.837 562.126 676.307C654.152 696.948 750.526 548.595 750.526 548.595C750.526 548.595 818.343 461.616 864.291 408.842C909.218 357.241 951.735 328 1043.27 328C1117.2 328 1188.2 411.422 1233.41 453.601Z" fill="#FFFAF4"/>
<path d="M287.099 397.545C197.248 468.164 73.3581 473.438 2 463.532V798L1440 798V555.208C1426.16 555.208 1402.33 550.439 1378.98 555.208C1327.01 565.824 1265.62 646.65 1213.5 656.5C1086.5 680.5 953.5 508 953.5 508C953.5 508 859.91 406.864 796.5 345.5C734.5 285.5 675.824 251.5 549.5 251.5C447.478 251.5 349.5 348.5 287.099 397.545Z" fill="#FDF6EE"/>
<path d="M92.3297 455.798C91.7907 453.553 93.8849 451.566 96.0991 452.222L102.742 454.19C104.956 454.846 105.63 457.653 103.954 459.243L98.9285 464.011C97.2532 465.601 94.4854 464.781 93.9464 462.535L92.3297 455.798Z" fill="#9AB1EC"/>
<path d="M1165.47 668.936C1164.93 666.69 1167.02 664.703 1169.24 665.359L1175.88 667.327C1178.09 667.983 1178.77 670.791 1177.09 672.38L1172.07 677.149C1170.39 678.738 1167.62 677.918 1167.08 675.673L1165.47 668.936Z" fill="#EC9AC1"/>
<path d="M882.467 225.936C881.928 223.69 884.022 221.703 886.236 222.359L892.879 224.327C895.093 224.984 895.767 227.791 894.092 229.38L889.066 234.149C887.39 235.738 884.623 234.918 884.084 232.673L882.467 225.936Z" fill="#A6EC9A"/>
<path d="M590 182.5C590 184.985 587.985 187 585.5 187C583.015 187 581 184.985 581 182.5C581 180.015 583.015 178 585.5 178C587.985 178 590 180.015 590 182.5Z" fill="#FFD6D6"/>
<path d="M1314 143.5C1314 145.985 1311.99 148 1309.5 148C1307.01 148 1305 145.985 1305 143.5C1305 141.015 1307.01 139 1309.5 139C1311.99 139 1314 141.015 1314 143.5Z" fill="#F9D6FF"/>
<path d="M757.528 168.612C754.282 164.144 755.273 157.89 759.741 154.644L780.55 139.528C785.019 136.282 791.272 137.273 794.518 141.741L809.635 162.55C812.88 167.019 811.89 173.272 807.421 176.518L786.612 191.634C782.144 194.88 775.89 193.889 772.644 189.421L757.528 168.612Z" fill="#0CBE64"/>
</svg>
